# xmcd
#
# Track frame offsets:
#	150
#	18983
#	31732
#	48741
#	62370
#	76088
#	89822
#	103077
#	118763
#	137154
#	154712
#	171841
#
# Disc length: 2491 seconds
#
# Revision: 2
# Processed by: cddbd v1.5.2PL0 Copyright (c) Steve Scherf et al.
# Submitted via: EZCDAudioConverter 2.1.4.1
#
DISCID=9709b90c
DTITLE=Chocolatte - Herança Popular
DYEAR=2013
DGENRE=Samba
TTITLE0=Olha o peixe
TTITLE1=Herança popular
TTITLE2=Lê Bolívia - Malandro demais
TTITLE3=O chamado de yáiá
TTITLE4=Beira de esquina
TTITLE5=Chora neném
TTITLE6=Coladinho na janela
TTITLE7=Pode ou não pode
TTITLE8=K pra nós
TTITLE9=Firme o pensamento
TTITLE10=Premiado campeão
TTITLE11=Festa do Bonfim
EXTD=
EXTT0=
EXTT1=
EXTT2=
EXTT3=
EXTT4=
EXTT5=
EXTT6=
EXTT7=
EXTT8=
EXTT9=
EXTT10=
EXTT11=
PLAYORDER=
